<mxfile host="app.diagrams.net" modified="2024-07-05T08:11:42.149Z" agent="Mozilla/5.0 (Windows NT 10.0; Win64; x64) AppleWebKit/537.36 (KHTML, like Gecko) Chrome/126.0.0.0 Safari/537.36" etag="dhHB3KPq02iyv4bh8cBs" version="24.6.4" type="device">
  <diagram name="Halaman-1" id="GOFaWYojYPYzS0-9qhxq">
    <mxGraphModel dx="1173" dy="579" grid="1" gridSize="10" guides="1" tooltips="1" connect="1" arrows="1" fold="1" page="1" pageScale="1" pageWidth="827" pageHeight="1169" math="0" shadow="0">
      <root>
        <mxCell id="0" />
        <mxCell id="1" parent="0" />
        <mxCell id="Mv8pBu9VJzNAuWYj7dNN-57" value="" style="rounded=0;whiteSpace=wrap;html=1;" vertex="1" parent="1">
          <mxGeometry x="10" y="10" width="510" height="1090" as="geometry" />
        </mxCell>
        <mxCell id="Mv8pBu9VJzNAuWYj7dNN-2" value="" style="whiteSpace=wrap;html=1;" vertex="1" parent="1">
          <mxGeometry x="170" y="20" width="320" height="1060" as="geometry" />
        </mxCell>
        <mxCell id="Mv8pBu9VJzNAuWYj7dNN-7" style="rounded=0;orthogonalLoop=1;jettySize=auto;html=1;entryX=0;entryY=0.5;entryDx=0;entryDy=0;" edge="1" parent="1" source="Mv8pBu9VJzNAuWYj7dNN-1" target="Mv8pBu9VJzNAuWYj7dNN-6">
          <mxGeometry relative="1" as="geometry" />
        </mxCell>
        <mxCell id="Mv8pBu9VJzNAuWYj7dNN-9" style="rounded=0;orthogonalLoop=1;jettySize=auto;html=1;entryX=0;entryY=0.5;entryDx=0;entryDy=0;" edge="1" parent="1" source="Mv8pBu9VJzNAuWYj7dNN-1" target="Mv8pBu9VJzNAuWYj7dNN-8">
          <mxGeometry relative="1" as="geometry" />
        </mxCell>
        <mxCell id="Mv8pBu9VJzNAuWYj7dNN-11" style="rounded=0;orthogonalLoop=1;jettySize=auto;html=1;entryX=0;entryY=0.5;entryDx=0;entryDy=0;" edge="1" parent="1" source="Mv8pBu9VJzNAuWYj7dNN-1" target="Mv8pBu9VJzNAuWYj7dNN-10">
          <mxGeometry relative="1" as="geometry" />
        </mxCell>
        <mxCell id="Mv8pBu9VJzNAuWYj7dNN-16" style="rounded=0;orthogonalLoop=1;jettySize=auto;html=1;entryX=0;entryY=0.5;entryDx=0;entryDy=0;" edge="1" parent="1" source="Mv8pBu9VJzNAuWYj7dNN-1" target="Mv8pBu9VJzNAuWYj7dNN-15">
          <mxGeometry relative="1" as="geometry" />
        </mxCell>
        <mxCell id="Mv8pBu9VJzNAuWYj7dNN-1" value="Konsumen&lt;div&gt;&lt;br&gt;&lt;/div&gt;" style="shape=umlActor;verticalLabelPosition=bottom;verticalAlign=top;html=1;outlineConnect=0;" vertex="1" parent="1">
          <mxGeometry x="50" y="75" width="30" height="60" as="geometry" />
        </mxCell>
        <mxCell id="Mv8pBu9VJzNAuWYj7dNN-6" value="Membuat Purchase Order" style="ellipse;whiteSpace=wrap;html=1;" vertex="1" parent="1">
          <mxGeometry x="260" y="40" width="160" height="40" as="geometry" />
        </mxCell>
        <mxCell id="Mv8pBu9VJzNAuWYj7dNN-8" value="Mengirim Data Desain" style="ellipse;whiteSpace=wrap;html=1;" vertex="1" parent="1">
          <mxGeometry x="280" y="90" width="140" height="30" as="geometry" />
        </mxCell>
        <mxCell id="Mv8pBu9VJzNAuWYj7dNN-10" value="Menyetujui&amp;nbsp;&lt;span style=&quot;background-color: initial;&quot;&gt;Desain&lt;/span&gt;" style="ellipse;whiteSpace=wrap;html=1;" vertex="1" parent="1">
          <mxGeometry x="270" y="130" width="140" height="30" as="geometry" />
        </mxCell>
        <mxCell id="Mv8pBu9VJzNAuWYj7dNN-13" value="Membuat&amp;nbsp;&lt;span style=&quot;background-color: initial;&quot;&gt;Desain Undangan&lt;/span&gt;" style="ellipse;whiteSpace=wrap;html=1;" vertex="1" parent="1">
          <mxGeometry x="255" y="787" width="190" height="45" as="geometry" />
        </mxCell>
        <mxCell id="Mv8pBu9VJzNAuWYj7dNN-15" value="Menerima Pesanan" style="ellipse;whiteSpace=wrap;html=1;" vertex="1" parent="1">
          <mxGeometry x="270" y="180" width="140" height="30" as="geometry" />
        </mxCell>
        <mxCell id="Mv8pBu9VJzNAuWYj7dNN-20" style="rounded=0;orthogonalLoop=1;jettySize=auto;html=1;entryX=0;entryY=0.5;entryDx=0;entryDy=0;" edge="1" source="Mv8pBu9VJzNAuWYj7dNN-21" target="Mv8pBu9VJzNAuWYj7dNN-22" parent="1">
          <mxGeometry relative="1" as="geometry" />
        </mxCell>
        <mxCell id="Mv8pBu9VJzNAuWYj7dNN-24" style="rounded=0;orthogonalLoop=1;jettySize=auto;html=1;entryX=0;entryY=0.5;entryDx=0;entryDy=0;" edge="1" parent="1" source="Mv8pBu9VJzNAuWYj7dNN-21" target="Mv8pBu9VJzNAuWYj7dNN-23">
          <mxGeometry relative="1" as="geometry" />
        </mxCell>
        <mxCell id="Mv8pBu9VJzNAuWYj7dNN-26" style="rounded=0;orthogonalLoop=1;jettySize=auto;html=1;entryX=0;entryY=0.5;entryDx=0;entryDy=0;" edge="1" parent="1" source="Mv8pBu9VJzNAuWYj7dNN-21" target="Mv8pBu9VJzNAuWYj7dNN-25">
          <mxGeometry relative="1" as="geometry" />
        </mxCell>
        <mxCell id="Mv8pBu9VJzNAuWYj7dNN-21" value="&lt;div&gt;Administrasi&lt;/div&gt;" style="shape=umlActor;verticalLabelPosition=bottom;verticalAlign=top;html=1;outlineConnect=0;" vertex="1" parent="1">
          <mxGeometry x="50" y="210" width="30" height="60" as="geometry" />
        </mxCell>
        <mxCell id="Mv8pBu9VJzNAuWYj7dNN-22" value="mendata pesanan konsumen" style="ellipse;whiteSpace=wrap;html=1;" vertex="1" parent="1">
          <mxGeometry x="250" y="250" width="190" height="45" as="geometry" />
        </mxCell>
        <mxCell id="Mv8pBu9VJzNAuWYj7dNN-23" value="Menerima desain dari produksi" style="ellipse;whiteSpace=wrap;html=1;" vertex="1" parent="1">
          <mxGeometry x="255" y="310" width="190" height="50" as="geometry" />
        </mxCell>
        <mxCell id="Mv8pBu9VJzNAuWYj7dNN-25" value="Membuat kwitansi dan surat jalan" style="ellipse;whiteSpace=wrap;html=1;" vertex="1" parent="1">
          <mxGeometry x="250" y="380" width="190" height="50" as="geometry" />
        </mxCell>
        <mxCell id="Mv8pBu9VJzNAuWYj7dNN-35" style="rounded=0;orthogonalLoop=1;jettySize=auto;html=1;entryX=0;entryY=0.5;entryDx=0;entryDy=0;" edge="1" source="Mv8pBu9VJzNAuWYj7dNN-38" target="Mv8pBu9VJzNAuWYj7dNN-39" parent="1">
          <mxGeometry relative="1" as="geometry" />
        </mxCell>
        <mxCell id="Mv8pBu9VJzNAuWYj7dNN-36" style="rounded=0;orthogonalLoop=1;jettySize=auto;html=1;entryX=0;entryY=0.5;entryDx=0;entryDy=0;" edge="1" source="Mv8pBu9VJzNAuWYj7dNN-38" target="Mv8pBu9VJzNAuWYj7dNN-40" parent="1">
          <mxGeometry relative="1" as="geometry" />
        </mxCell>
        <mxCell id="Mv8pBu9VJzNAuWYj7dNN-38" value="&lt;div&gt;Pemasaran&lt;/div&gt;" style="shape=umlActor;verticalLabelPosition=bottom;verticalAlign=top;html=1;outlineConnect=0;" vertex="1" parent="1">
          <mxGeometry x="50" y="467.5" width="30" height="60" as="geometry" />
        </mxCell>
        <mxCell id="Mv8pBu9VJzNAuWYj7dNN-39" value="Memberikan nota pesanan" style="ellipse;whiteSpace=wrap;html=1;" vertex="1" parent="1">
          <mxGeometry x="250" y="475" width="190" height="45" as="geometry" />
        </mxCell>
        <mxCell id="Mv8pBu9VJzNAuWYj7dNN-40" value="membuat laporan pengiriman" style="ellipse;whiteSpace=wrap;html=1;" vertex="1" parent="1">
          <mxGeometry x="255" y="535" width="190" height="50" as="geometry" />
        </mxCell>
        <mxCell id="Mv8pBu9VJzNAuWYj7dNN-44" style="rounded=0;orthogonalLoop=1;jettySize=auto;html=1;entryX=0;entryY=0.5;entryDx=0;entryDy=0;" edge="1" source="Mv8pBu9VJzNAuWYj7dNN-46" target="Mv8pBu9VJzNAuWYj7dNN-47" parent="1">
          <mxGeometry relative="1" as="geometry" />
        </mxCell>
        <mxCell id="Mv8pBu9VJzNAuWYj7dNN-45" style="rounded=0;orthogonalLoop=1;jettySize=auto;html=1;entryX=0;entryY=0.5;entryDx=0;entryDy=0;" edge="1" source="Mv8pBu9VJzNAuWYj7dNN-46" target="Mv8pBu9VJzNAuWYj7dNN-48" parent="1">
          <mxGeometry relative="1" as="geometry" />
        </mxCell>
        <mxCell id="Mv8pBu9VJzNAuWYj7dNN-46" value="&lt;div&gt;Direktur&lt;/div&gt;" style="shape=umlActor;verticalLabelPosition=bottom;verticalAlign=top;html=1;outlineConnect=0;" vertex="1" parent="1">
          <mxGeometry x="50" y="615" width="30" height="60" as="geometry" />
        </mxCell>
        <mxCell id="Mv8pBu9VJzNAuWYj7dNN-47" value="Menandatangani Dokumen" style="ellipse;whiteSpace=wrap;html=1;" vertex="1" parent="1">
          <mxGeometry x="250" y="622.5" width="190" height="45" as="geometry" />
        </mxCell>
        <mxCell id="Mv8pBu9VJzNAuWYj7dNN-48" value="Mengkonfirmasi pesanan siap kirim" style="ellipse;whiteSpace=wrap;html=1;" vertex="1" parent="1">
          <mxGeometry x="255" y="682.5" width="215" height="50" as="geometry" />
        </mxCell>
        <mxCell id="Mv8pBu9VJzNAuWYj7dNN-49" style="rounded=0;orthogonalLoop=1;jettySize=auto;html=1;entryX=0;entryY=0.5;entryDx=0;entryDy=0;" edge="1" source="Mv8pBu9VJzNAuWYj7dNN-50" target="Mv8pBu9VJzNAuWYj7dNN-51" parent="1">
          <mxGeometry relative="1" as="geometry" />
        </mxCell>
        <mxCell id="Mv8pBu9VJzNAuWYj7dNN-53" style="rounded=0;orthogonalLoop=1;jettySize=auto;html=1;entryX=0;entryY=0.5;entryDx=0;entryDy=0;" edge="1" parent="1" source="Mv8pBu9VJzNAuWYj7dNN-50" target="Mv8pBu9VJzNAuWYj7dNN-52">
          <mxGeometry relative="1" as="geometry" />
        </mxCell>
        <mxCell id="Mv8pBu9VJzNAuWYj7dNN-54" style="rounded=0;orthogonalLoop=1;jettySize=auto;html=1;entryX=0;entryY=0.5;entryDx=0;entryDy=0;" edge="1" parent="1" source="Mv8pBu9VJzNAuWYj7dNN-50" target="Mv8pBu9VJzNAuWYj7dNN-13">
          <mxGeometry relative="1" as="geometry" />
        </mxCell>
        <mxCell id="Mv8pBu9VJzNAuWYj7dNN-56" style="rounded=0;orthogonalLoop=1;jettySize=auto;html=1;entryX=0;entryY=0.5;entryDx=0;entryDy=0;" edge="1" parent="1" source="Mv8pBu9VJzNAuWYj7dNN-50" target="Mv8pBu9VJzNAuWYj7dNN-55">
          <mxGeometry relative="1" as="geometry" />
        </mxCell>
        <mxCell id="Mv8pBu9VJzNAuWYj7dNN-50" value="Produksi" style="shape=umlActor;verticalLabelPosition=bottom;verticalAlign=top;html=1;outlineConnect=0;" vertex="1" parent="1">
          <mxGeometry x="50" y="797" width="30" height="60" as="geometry" />
        </mxCell>
        <mxCell id="Mv8pBu9VJzNAuWYj7dNN-51" value="Memperbanyak pesanan" style="ellipse;whiteSpace=wrap;html=1;" vertex="1" parent="1">
          <mxGeometry x="245" y="907" width="190" height="45" as="geometry" />
        </mxCell>
        <mxCell id="Mv8pBu9VJzNAuWYj7dNN-52" value="memberikan konfirmasi pembuatan telah selesai ke Administrasi" style="ellipse;whiteSpace=wrap;html=1;" vertex="1" parent="1">
          <mxGeometry x="240" y="967" width="205" height="70" as="geometry" />
        </mxCell>
        <mxCell id="Mv8pBu9VJzNAuWYj7dNN-55" value="Menyerahkan hasil pembuatan ke Administrasi" style="ellipse;whiteSpace=wrap;html=1;" vertex="1" parent="1">
          <mxGeometry x="255" y="837" width="205" height="60" as="geometry" />
        </mxCell>
      </root>
    </mxGraphModel>
  </diagram>
</mxfile>
